<?xml version="1.0" encoding="utf-8" standalone="no"?>
<!DOCTYPE svg PUBLIC "-//W3C//DTD SVG 1.1//EN"
  "http://www.w3.org/Graphics/SVG/1.1/DTD/svg11.dtd">
<!-- Created with matplotlib (http://matplotlib.org/) -->
<svg height="432pt" version="1.1" viewBox="0 0 516.202002 432" width="516.202002pt" xmlns="http://www.w3.org/2000/svg" xmlns:xlink="http://www.w3.org/1999/xlink">
 <defs>
  <style type="text/css">
*{stroke-linecap:butt;stroke-linejoin:round;}
  </style>
 </defs>
 <g id="figure_1">
  <g id="patch_1">
   <path d="M 0 432 
L 516.202002 432 
L 516.202002 0 
L 0 0 
z
" style="fill:none;opacity:0;"/>
  </g>
  <g id="axes_1">
   <g id="PathCollection_1">
    <defs>
     <path d="M 0 1.936492 
C 0.513564 1.936492 1.006162 1.732451 1.369306 1.369306 
C 1.732451 1.006162 1.936492 0.513564 1.936492 0 
C 1.936492 -0.513564 1.732451 -1.006162 1.369306 -1.369306 
C 1.006162 -1.732451 0.513564 -1.936492 0 -1.936492 
C -0.513564 -1.936492 -1.006162 -1.732451 -1.369306 -1.369306 
C -1.732451 -1.006162 -1.936492 -0.513564 -1.936492 0 
C -1.936492 0.513564 -1.732451 1.006162 -1.369306 1.369306 
C -1.006162 1.732451 -0.513564 1.936492 0 1.936492 
z
" id="C0_0_b2ef8f5777"/>
    </defs>
    <g clip-path="url(#pb407462ed5)">
     <use style="fill:#66ccff;" x="453.331288" xlink:href="#C0_0_b2ef8f5777" y="410.999511"/>
    </g>
    <g clip-path="url(#pb407462ed5)">
     <use style="fill:#66ccff;" x="228.403487" xlink:href="#C0_0_b2ef8f5777" y="314.935278"/>
    </g>
    <g clip-path="url(#pb407462ed5)">
     <use style="fill:#66ccff;" x="251.583262" xlink:href="#C0_0_b2ef8f5777" y="312.101279"/>
    </g>
    <g clip-path="url(#pb407462ed5)">
     <use style="fill:#66ccff;" x="238.439412" xlink:href="#C0_0_b2ef8f5777" y="311.485394"/>
    </g>
    <g clip-path="url(#pb407462ed5)">
     <use style="fill:#66ccff;" x="235.997195" xlink:href="#C0_0_b2ef8f5777" y="309.957257"/>
    </g>
    <g clip-path="url(#pb407462ed5)">
     <use style="fill:#66ccff;" x="240.746166" xlink:href="#C0_0_b2ef8f5777" y="309.383048"/>
    </g>
    <g clip-path="url(#pb407462ed5)">
     <use style="fill:#66ccff;" x="239.472807" xlink:href="#C0_0_b2ef8f5777" y="304.789376"/>
    </g>
    <g clip-path="url(#pb407462ed5)">
     <use style="fill:#66ccff;" x="239.825012" xlink:href="#C0_0_b2ef8f5777" y="399.154136"/>
    </g>
    <g clip-path="url(#pb407462ed5)">
     <use style="fill:#66ccff;" x="216.974221" xlink:href="#C0_0_b2ef8f5777" y="390.610462"/>
    </g>
    <g clip-path="url(#pb407462ed5)">
     <use style="fill:#66ccff;" x="314.473253" xlink:href="#C0_0_b2ef8f5777" y="379.441172"/>
    </g>
    <g clip-path="url(#pb407462ed5)">
     <use style="fill:#66ccff;" x="337.060858" xlink:href="#C0_0_b2ef8f5777" y="379.10776"/>
    </g>
    <g clip-path="url(#pb407462ed5)">
     <use style="fill:#66ccff;" x="381.907084" xlink:href="#C0_0_b2ef8f5777" y="379.441172"/>
    </g>
    <g clip-path="url(#pb407462ed5)">
     <use style="fill:#66ccff;" x="168.969756" xlink:href="#C0_0_b2ef8f5777" y="262.848968"/>
    </g>
    <g clip-path="url(#pb407462ed5)">
     <use style="fill:#66ccff;" x="215.518954" xlink:href="#C0_0_b2ef8f5777" y="363.766193"/>
    </g>
    <g clip-path="url(#pb407462ed5)">
     <use style="fill:#66ccff;" x="214.895821" xlink:href="#C0_0_b2ef8f5777" y="355.810621"/>
    </g>
    <g clip-path="url(#pb407462ed5)">
     <use style="fill:#66ccff;" x="216.76135" xlink:href="#C0_0_b2ef8f5777" y="307.878065"/>
    </g>
    <g clip-path="url(#pb407462ed5)">
     <use style="fill:#66ccff;" x="219.145511" xlink:href="#C0_0_b2ef8f5777" y="310.003564"/>
    </g>
    <g clip-path="url(#pb407462ed5)">
     <use style="fill:#66ccff;" x="250.356348" xlink:href="#C0_0_b2ef8f5777" y="30.632381"/>
    </g>
    <g clip-path="url(#pb407462ed5)">
     <use style="fill:#66ccff;" x="401.173893" xlink:href="#C0_0_b2ef8f5777" y="346.887228"/>
    </g>
    <g clip-path="url(#pb407462ed5)">
     <use style="fill:#66ccff;" x="219.815089" xlink:href="#C0_0_b2ef8f5777" y="303.603912"/>
    </g>
    <g clip-path="url(#pb407462ed5)">
     <use style="fill:#66ccff;" x="217.202574" xlink:href="#C0_0_b2ef8f5777" y="304.395765"/>
    </g>
    <g clip-path="url(#pb407462ed5)">
     <use style="fill:#66ccff;" x="213.390239" xlink:href="#C0_0_b2ef8f5777" y="309.447878"/>
    </g>
    <g clip-path="url(#pb407462ed5)">
     <use style="fill:#66ccff;" x="215.886641" xlink:href="#C0_0_b2ef8f5777" y="315.106615"/>
    </g>
    <g clip-path="url(#pb407462ed5)">
     <use style="fill:#66ccff;" x="214.876469" xlink:href="#C0_0_b2ef8f5777" y="314.004504"/>
    </g>
    <g clip-path="url(#pb407462ed5)">
     <use style="fill:#66ccff;" x="215.019673" xlink:href="#C0_0_b2ef8f5777" y="312.712534"/>
    </g>
    <g clip-path="url(#pb407462ed5)">
     <use style="fill:#66ccff;" x="217.504465" xlink:href="#C0_0_b2ef8f5777" y="312.166109"/>
    </g>
    <g clip-path="url(#pb407462ed5)">
     <use style="fill:#66ccff;" x="218.181783" xlink:href="#C0_0_b2ef8f5777" y="313.72203"/>
    </g>
    <g clip-path="url(#pb407462ed5)">
     <use style="fill:#66ccff;" x="168.547883" xlink:href="#C0_0_b2ef8f5777" y="414.310474"/>
    </g>
    <g clip-path="url(#pb407462ed5)">
     <use style="fill:#66ccff;" x="205.904902" xlink:href="#C0_0_b2ef8f5777" y="268.114094"/>
    </g>
    <g clip-path="url(#pb407462ed5)">
     <use style="fill:#66ccff;" x="446.352973" xlink:href="#C0_0_b2ef8f5777" y="342.233357"/>
    </g>
    <g clip-path="url(#pb407462ed5)">
     <use style="fill:#66ccff;" x="215.093211" xlink:href="#C0_0_b2ef8f5777" y="268.609581"/>
    </g>
    <g clip-path="url(#pb407462ed5)">
     <use style="fill:#66ccff;" x="219.505457" xlink:href="#C0_0_b2ef8f5777" y="272.115034"/>
    </g>
    <g clip-path="url(#pb407462ed5)">
     <use style="fill:#66ccff;" x="220.844613" xlink:href="#C0_0_b2ef8f5777" y="270.573005"/>
    </g>
    <g clip-path="url(#pb407462ed5)">
     <use style="fill:#66ccff;" x="222.640474" xlink:href="#C0_0_b2ef8f5777" y="271.063861"/>
    </g>
    <g clip-path="url(#pb407462ed5)">
     <use style="fill:#66ccff;" x="314.473253" xlink:href="#C0_0_b2ef8f5777" y="312.337446"/>
    </g>
    <g clip-path="url(#pb407462ed5)">
     <use style="fill:#66ccff;" x="107.178955" xlink:href="#C0_0_b2ef8f5777" y="354.856693"/>
    </g>
    <g clip-path="url(#pb407462ed5)">
     <use style="fill:#66ccff;" x="210.924799" xlink:href="#C0_0_b2ef8f5777" y="190.155966"/>
    </g>
    <g clip-path="url(#pb407462ed5)">
     <use style="fill:#66ccff;" x="362.973129" xlink:href="#C0_0_b2ef8f5777" y="114.675272"/>
    </g>
    <g clip-path="url(#pb407462ed5)">
     <use style="fill:#66ccff;" x="248.212151" xlink:href="#C0_0_b2ef8f5777" y="188.752859"/>
    </g>
    <g clip-path="url(#pb407462ed5)">
     <use style="fill:#66ccff;" x="304.019326" xlink:href="#C0_0_b2ef8f5777" y="186.303209"/>
    </g>
    <g clip-path="url(#pb407462ed5)">
     <use style="fill:#66ccff;" x="250.174439" xlink:href="#C0_0_b2ef8f5777" y="173.517798"/>
    </g>
    <g clip-path="url(#pb407462ed5)">
     <use style="fill:#66ccff;" x="339.011535" xlink:href="#C0_0_b2ef8f5777" y="156.972245"/>
    </g>
    <g clip-path="url(#pb407462ed5)">
     <use style="fill:#66ccff;" x="51.627226" xlink:href="#C0_0_b2ef8f5777" y="262.886014"/>
    </g>
    <g clip-path="url(#pb407462ed5)">
     <use style="fill:#66ccff;" x="239.863716" xlink:href="#C0_0_b2ef8f5777" y="423.692308"/>
    </g>
    <g clip-path="url(#pb407462ed5)">
     <use style="fill:#66ccff;" x="245.181634" xlink:href="#C0_0_b2ef8f5777" y="155.990533"/>
    </g>
    <g clip-path="url(#pb407462ed5)">
     <use style="fill:#66ccff;" x="188.573288" xlink:href="#C0_0_b2ef8f5777" y="8.349369"/>
    </g>
    <g clip-path="url(#pb407462ed5)">
     <use style="fill:#66ccff;" x="87.854091" xlink:href="#C0_0_b2ef8f5777" y="54.70285"/>
    </g>
    <g clip-path="url(#pb407462ed5)">
     <use style="fill:#66ccff;" x="60.552349" xlink:href="#C0_0_b2ef8f5777" y="54.985324"/>
    </g>
    <g clip-path="url(#pb407462ed5)">
     <use style="fill:#66ccff;" x="241.949857" xlink:href="#C0_0_b2ef8f5777" y="304.455964"/>
    </g>
    <g clip-path="url(#pb407462ed5)">
     <use style="fill:#66ccff;" x="242.940678" xlink:href="#C0_0_b2ef8f5777" y="308.271676"/>
    </g>
    <g clip-path="url(#pb407462ed5)">
     <use style="fill:#66ccff;" x="250.286681" xlink:href="#C0_0_b2ef8f5777" y="308.188323"/>
    </g>
    <g clip-path="url(#pb407462ed5)">
     <use style="fill:#66ccff;" x="281.42011" xlink:href="#C0_0_b2ef8f5777" y="308.62361"/>
    </g>
    <g clip-path="url(#pb407462ed5)">
     <use style="fill:#66ccff;" x="242.046617" xlink:href="#C0_0_b2ef8f5777" y="274.560053"/>
    </g>
    <g clip-path="url(#pb407462ed5)">
     <use style="fill:#66ccff;" x="250.406663" xlink:href="#C0_0_b2ef8f5777" y="274.532268"/>
    </g>
    <g clip-path="url(#pb407462ed5)">
     <use style="fill:#66ccff;" x="250.611794" xlink:href="#C0_0_b2ef8f5777" y="262.617432"/>
    </g>
    <g clip-path="url(#pb407462ed5)">
     <use style="fill:#66ccff;" x="67.414553" xlink:href="#C0_0_b2ef8f5777" y="262.529449"/>
    </g>
    <g clip-path="url(#pb407462ed5)">
     <use style="fill:#66ccff;" x="112.593633" xlink:href="#C0_0_b2ef8f5777" y="262.86286"/>
    </g>
    <g clip-path="url(#pb407462ed5)">
     <use style="fill:#66ccff;" x="210.495186" xlink:href="#C0_0_b2ef8f5777" y="262.835076"/>
    </g>
    <g clip-path="url(#pb407462ed5)">
     <use style="fill:#66ccff;" x="305.501686" xlink:href="#C0_0_b2ef8f5777" y="262.172884"/>
    </g>
    <g clip-path="url(#pb407462ed5)">
     <use style="fill:#66ccff;" x="241.237705" xlink:href="#C0_0_b2ef8f5777" y="211.554511"/>
    </g>
    <g clip-path="url(#pb407462ed5)">
     <use style="fill:#66ccff;" x="448.679078" xlink:href="#C0_0_b2ef8f5777" y="261.50606"/>
    </g>
    <g clip-path="url(#pb407462ed5)">
     <use style="fill:#66ccff;" x="288.54163" xlink:href="#C0_0_b2ef8f5777" y="204.478775"/>
    </g>
    <g clip-path="url(#pb407462ed5)">
     <use style="fill:#66ccff;" x="465.526892" xlink:href="#C0_0_b2ef8f5777" y="261.418077"/>
    </g>
    <g clip-path="url(#pb407462ed5)">
     <use style="fill:#66ccff;" x="324.671735" xlink:href="#C0_0_b2ef8f5777" y="198.310659"/>
    </g>
    <g clip-path="url(#pb407462ed5)">
     <use style="fill:#66ccff;" x="249.315212" xlink:href="#C0_0_b2ef8f5777" y="88.372797"/>
    </g>
    <g clip-path="url(#pb407462ed5)">
     <use style="fill:#66ccff;" x="212.41877" xlink:href="#C0_0_b2ef8f5777" y="53.054315"/>
    </g>
    <g clip-path="url(#pb407462ed5)">
     <use style="fill:#66ccff;" x="213.150274" xlink:href="#C0_0_b2ef8f5777" y="30.632381"/>
    </g>
    <g clip-path="url(#pb407462ed5)">
     <use style="fill:#66ccff;" x="323.773804" xlink:href="#C0_0_b2ef8f5777" y="30.3036"/>
    </g>
    <g clip-path="url(#pb407462ed5)">
     <use style="fill:#66ccff;" x="242.499453" xlink:href="#C0_0_b2ef8f5777" y="53.179344"/>
    </g>
    <g clip-path="url(#pb407462ed5)">
     <use style="fill:#66ccff;" x="322.724928" xlink:href="#C0_0_b2ef8f5777" y="49.349741"/>
    </g>
    <g clip-path="url(#pb407462ed5)">
     <use style="fill:#66ccff;" x="50.67511" xlink:href="#C0_0_b2ef8f5777" y="55.031631"/>
    </g>
    <g clip-path="url(#pb407462ed5)">
     <use style="fill:#66ccff;" x="339.112165" xlink:href="#C0_0_b2ef8f5777" y="139.352365"/>
    </g>
    <g clip-path="url(#pb407462ed5)">
     <use style="fill:#66ccff;" x="211.342802" xlink:href="#C0_0_b2ef8f5777" y="133.814027"/>
    </g>
    <g clip-path="url(#pb407462ed5)">
     <use style="fill:#66ccff;" x="233.4737" xlink:href="#C0_0_b2ef8f5777" y="133.531553"/>
    </g>
    <g clip-path="url(#pb407462ed5)">
     <use style="fill:#66ccff;" x="312.344538" xlink:href="#C0_0_b2ef8f5777" y="132.92956"/>
    </g>
    <g clip-path="url(#pb407462ed5)">
     <use style="fill:#66ccff;" x="336.101001" xlink:href="#C0_0_b2ef8f5777" y="132.753593"/>
    </g>
    <g clip-path="url(#pb407462ed5)">
     <use style="fill:#66ccff;" x="381.907084" xlink:href="#C0_0_b2ef8f5777" y="346.887228"/>
    </g>
    <g clip-path="url(#pb407462ed5)">
     <use style="fill:#66ccff;" x="433.661959" xlink:href="#C0_0_b2ef8f5777" y="48.844993"/>
    </g>
    <g clip-path="url(#pb407462ed5)">
     <use style="fill:#66ccff;" x="323.947971" xlink:href="#C0_0_b2ef8f5777" y="11.928913"/>
    </g>
    <g clip-path="url(#pb407462ed5)">
     <use style="fill:#66ccff;" x="366.959632" xlink:href="#C0_0_b2ef8f5777" y="261.839472"/>
    </g>
    <g clip-path="url(#pb407462ed5)">
     <use style="fill:#66ccff;" x="371.940826" xlink:href="#C0_0_b2ef8f5777" y="165.168615"/>
    </g>
    <g clip-path="url(#pb407462ed5)">
     <use style="fill:#66ccff;" x="370.280428" xlink:href="#C0_0_b2ef8f5777" y="112.021871"/>
    </g>
    <g clip-path="url(#pb407462ed5)">
     <use style="fill:#66ccff;" x="211.157023" xlink:href="#C0_0_b2ef8f5777" y="151.216263"/>
    </g>
    <g clip-path="url(#pb407462ed5)">
     <use style="fill:#66ccff;" x="167.309358" xlink:href="#C0_0_b2ef8f5777" y="151.549675"/>
    </g>
    <g clip-path="url(#pb407462ed5)">
     <use style="fill:#66ccff;" x="315.467944" xlink:href="#C0_0_b2ef8f5777" y="262.117315"/>
    </g>
    <g clip-path="url(#pb407462ed5)">
     <use style="fill:#66ccff;" x="331.74681" xlink:href="#C0_0_b2ef8f5777" y="276.458647"/>
    </g>
    <g clip-path="url(#pb407462ed5)">
     <use style="fill:#66ccff;" x="361.645585" xlink:href="#C0_0_b2ef8f5777" y="346.553817"/>
    </g>
    <g clip-path="url(#pb407462ed5)">
     <use style="fill:#66ccff;" x="68.432466" xlink:href="#C0_0_b2ef8f5777" y="54.95754"/>
    </g>
    <g clip-path="url(#pb407462ed5)">
     <use style="fill:#66ccff;" x="211.82273" xlink:href="#C0_0_b2ef8f5777" y="89.099819"/>
    </g>
    <g clip-path="url(#pb407462ed5)">
     <use style="fill:#66ccff;" x="167.309358" xlink:href="#C0_0_b2ef8f5777" y="94.415883"/>
    </g>
    <g clip-path="url(#pb407462ed5)">
     <use style="fill:#66ccff;" x="432.404082" xlink:href="#C0_0_b2ef8f5777" y="284.761523"/>
    </g>
    <g clip-path="url(#pb407462ed5)">
     <use style="fill:#66ccff;" x="209.810127" xlink:href="#C0_0_b2ef8f5777" y="262.835076"/>
    </g>
    <g clip-path="url(#pb407462ed5)">
     <use style="fill:#66ccff;" x="436.057731" xlink:href="#C0_0_b2ef8f5777" y="307.683575"/>
    </g>
    <g clip-path="url(#pb407462ed5)">
     <use style="fill:#66ccff;" x="209.759811" xlink:href="#C0_0_b2ef8f5777" y="268.100202"/>
    </g>
    <g clip-path="url(#pb407462ed5)">
     <use style="fill:#66ccff;" x="214.663597" xlink:href="#C0_0_b2ef8f5777" y="262.811923"/>
    </g>
    <g clip-path="url(#pb407462ed5)">
     <use style="fill:#66ccff;" x="178.471567" xlink:href="#C0_0_b2ef8f5777" y="277.005071"/>
    </g>
    <g clip-path="url(#pb407462ed5)">
     <use style="fill:#66ccff;" x="168.400808" xlink:href="#C0_0_b2ef8f5777" y="310.938969"/>
    </g>
    <g clip-path="url(#pb407462ed5)">
     <use style="fill:#66ccff;" x="177.991638" xlink:href="#C0_0_b2ef8f5777" y="310.989907"/>
    </g>
    <g clip-path="url(#pb407462ed5)">
     <use style="fill:#66ccff;" x="168.787847" xlink:href="#C0_0_b2ef8f5777" y="274.435023"/>
    </g>
    <g clip-path="url(#pb407462ed5)">
     <use style="fill:#66ccff;" x="410.14546" xlink:href="#C0_0_b2ef8f5777" y="164.506422"/>
    </g>
    <g clip-path="url(#pb407462ed5)">
     <use style="fill:#66ccff;" x="348.687514" xlink:href="#C0_0_b2ef8f5777" y="312.666226"/>
    </g>
    <g clip-path="url(#pb407462ed5)">
     <use style="fill:#66ccff;" x="448.346224" xlink:href="#C0_0_b2ef8f5777" y="231.94356"/>
    </g>
    <g clip-path="url(#pb407462ed5)">
     <use style="fill:#66ccff;" x="366.626778" xlink:href="#C0_0_b2ef8f5777" y="232.272341"/>
    </g>
    <g clip-path="url(#pb407462ed5)">
     <use style="fill:#66ccff;" x="409.812607" xlink:href="#C0_0_b2ef8f5777" y="149.225055"/>
    </g>
    <g clip-path="url(#pb407462ed5)">
     <use style="fill:#66ccff;" x="459.311043" xlink:href="#C0_0_b2ef8f5777" y="373.129504"/>
    </g>
    <g clip-path="url(#pb407462ed5)">
     <use style="fill:#66ccff;" x="449.654417" xlink:href="#C0_0_b2ef8f5777" y="164.81668"/>
    </g>
    <g clip-path="url(#pb407462ed5)">
     <use style="fill:#66ccff;" x="448.679078" xlink:href="#C0_0_b2ef8f5777" y="197.727189"/>
    </g>
   </g>
   <g id="LineCollection_1">
    <path clip-path="url(#pb407462ed5)" d="M 453.331288 410.999511 
L 442.037486 412.661939 
L 381.891602 413.004612 
L 381.907084 379.441172 
" style="fill:none;stroke:#999999;"/>
    <path clip-path="url(#pb407462ed5)" d="M 228.403487 314.935278 
L 218.402396 313.694246 
L 218.181783 313.72203 
" style="fill:none;stroke:#999999;"/>
    <path clip-path="url(#pb407462ed5)" d="M 228.403487 314.935278 
L 228.221579 315.750284 
L 228.813749 318.357378 
L 230.474147 320.450462 
L 232.869919 321.622034 
L 235.540489 321.649818 
L 237.959484 320.524554 
L 239.658586 318.463885 
L 240.304941 315.870683 
L 240.030143 313.935043 
L 239.147694 312.189263 
L 238.439412 311.485394 
" style="fill:none;stroke:#999999;"/>
    <path clip-path="url(#pb407462ed5)" d="M 228.403487 314.935278 
L 228.806008 313.147821 
L 230.048404 311.415933 
L 231.813302 310.221208 
L 233.880091 309.711829 
L 235.997195 309.957257 
" style="fill:none;stroke:#999999;"/>
    <path clip-path="url(#pb407462ed5)" d="M 251.583262 312.101279 
L 242.758769 311.948465 
L 240.746166 309.383048 
" style="fill:none;stroke:#999999;"/>
    <path clip-path="url(#pb407462ed5)" d="M 238.439412 311.485394 
L 240.746166 309.383048 
" style="fill:none;stroke:#999999;"/>
    <path clip-path="url(#pb407462ed5)" d="M 238.439412 311.485394 
L 237.754353 310.813939 
L 235.997195 309.957257 
" style="fill:none;stroke:#999999;"/>
    <path clip-path="url(#pb407462ed5)" d="M 238.439412 311.485394 
L 239.147694 312.189263 
L 240.030143 313.935043 
L 240.304941 315.870683 
L 239.658586 318.463885 
L 237.959484 320.524554 
L 235.540489 321.649818 
L 232.869919 321.622034 
L 230.474147 320.450462 
L 228.813749 318.357378 
L 228.221579 315.750284 
L 228.403487 314.935278 
" style="fill:none;stroke:#999999;"/>
    <path clip-path="url(#pb407462ed5)" d="M 235.997195 309.957257 
L 237.293776 305.164464 
L 239.472807 304.789376 
" style="fill:none;stroke:#999999;"/>
    <path clip-path="url(#pb407462ed5)" d="M 235.997195 309.957257 
L 233.880091 309.711829 
L 231.813302 310.221208 
L 230.048404 311.415933 
L 228.806008 313.147821 
L 228.403487 314.935278 
" style="fill:none;stroke:#999999;"/>
    <path clip-path="url(#pb407462ed5)" d="M 235.997195 309.957257 
L 237.754353 310.813939 
L 238.439412 311.485394 
" style="fill:none;stroke:#999999;"/>
    <path clip-path="url(#pb407462ed5)" d="M 240.746166 309.383048 
L 242.940678 308.271676 
" style="fill:none;stroke:#999999;"/>
    <path clip-path="url(#pb407462ed5)" d="M 240.746166 309.383048 
L 238.439412 311.485394 
" style="fill:none;stroke:#999999;"/>
    <path clip-path="url(#pb407462ed5)" d="M 240.746166 309.383048 
L 239.472807 304.789376 
" style="fill:none;stroke:#999999;"/>
    <path clip-path="url(#pb407462ed5)" d="M 240.746166 309.383048 
L 242.758769 311.948465 
L 251.583262 312.101279 
" style="fill:none;stroke:#999999;"/>
    <path clip-path="url(#pb407462ed5)" d="M 239.472807 304.789376 
L 240.746166 309.383048 
" style="fill:none;stroke:#999999;"/>
    <path clip-path="url(#pb407462ed5)" d="M 239.472807 304.789376 
L 241.949857 304.455964 
" style="fill:none;stroke:#999999;"/>
    <path clip-path="url(#pb407462ed5)" d="M 239.472807 304.789376 
L 237.293776 305.164464 
L 235.997195 309.957257 
" style="fill:none;stroke:#999999;"/>
    <path clip-path="url(#pb407462ed5)" d="M 239.825012 399.154136 
L 239.859846 420.654557 
L 239.863716 423.692308 
" style="fill:none;stroke:#999999;"/>
    <path clip-path="url(#pb407462ed5)" d="M 239.825012 399.154136 
L 239.821142 396.639656 
L 239.813401 390.573417 
L 238.195578 390.578047 
L 219.563513 390.605832 
L 216.974221 390.610462 
" style="fill:none;stroke:#999999;"/>
    <path clip-path="url(#pb407462ed5)" d="M 239.825012 399.154136 
L 238.075596 399.158767 
L 219.439661 399.186551 
L 216.985832 399.191182 
L 216.974221 390.610462 
" style="fill:none;stroke:#999999;"/>
    <path clip-path="url(#pb407462ed5)" d="M 216.974221 390.610462 
L 216.985832 399.191182 
L 219.439661 399.186551 
L 238.075596 399.158767 
L 239.825012 399.154136 
" style="fill:none;stroke:#999999;"/>
    <path clip-path="url(#pb407462ed5)" d="M 216.974221 390.610462 
L 219.563513 390.605832 
L 238.195578 390.578047 
L 239.813401 390.573417 
L 239.821142 396.639656 
L 239.825012 399.154136 
" style="fill:none;stroke:#999999;"/>
    <path clip-path="url(#pb407462ed5)" d="M 216.974221 390.610462 
L 215.364138 389.642642 
L 215.518954 363.766193 
" style="fill:none;stroke:#999999;"/>
    <path clip-path="url(#pb407462ed5)" d="M 314.473253 379.441172 
L 337.060858 379.10776 
" style="fill:none;stroke:#999999;"/>
    <path clip-path="url(#pb407462ed5)" d="M 314.473253 379.441172 
L 313.807546 412.328527 
L 361.312731 413.328762 
L 361.645585 379.441172 
L 337.060858 379.10776 
" style="fill:none;stroke:#999999;"/>
    <path clip-path="url(#pb407462ed5)" d="M 314.473253 379.441172 
L 314.473253 312.337446 
" style="fill:none;stroke:#999999;"/>
    <path clip-path="url(#pb407462ed5)" d="M 337.060858 379.10776 
L 314.473253 379.441172 
" style="fill:none;stroke:#999999;"/>
    <path clip-path="url(#pb407462ed5)" d="M 337.060858 379.10776 
L 361.645585 379.441172 
L 361.312731 413.328762 
L 313.807546 412.328527 
L 314.473253 379.441172 
" style="fill:none;stroke:#999999;"/>
    <path clip-path="url(#pb407462ed5)" d="M 337.060858 379.10776 
L 337.060858 345.886993 
L 361.645585 346.553817 
" style="fill:none;stroke:#999999;"/>
    <path clip-path="url(#pb407462ed5)" d="M 381.907084 379.441172 
L 381.907084 346.887228 
" style="fill:none;stroke:#999999;"/>
    <path clip-path="url(#pb407462ed5)" d="M 381.907084 379.441172 
L 436.719568 379.774584 
L 446.685826 378.112156 
L 459.311043 373.129504 
" style="fill:none;stroke:#999999;"/>
    <path clip-path="url(#pb407462ed5)" d="M 381.907084 379.441172 
L 381.891602 413.004612 
L 442.037486 412.661939 
L 453.331288 410.999511 
" style="fill:none;stroke:#999999;"/>
    <path clip-path="url(#pb407462ed5)" d="M 168.969756 262.848968 
L 168.787847 274.435023 
" style="fill:none;stroke:#999999;"/>
    <path clip-path="url(#pb407462ed5)" d="M 168.969756 262.848968 
L 112.593633 262.86286 
" style="fill:none;stroke:#999999;"/>
    <path clip-path="url(#pb407462ed5)" d="M 168.969756 262.848968 
L 192.594625 262.839707 
L 209.810127 262.835076 
" style="fill:none;stroke:#999999;"/>
    <path clip-path="url(#pb407462ed5)" d="M 215.518954 363.766193 
L 215.364138 389.642642 
L 216.974221 390.610462 
" style="fill:none;stroke:#999999;"/>
    <path clip-path="url(#pb407462ed5)" d="M 215.518954 363.766193 
L 216.711035 363.590226 
L 218.108246 362.71039 
L 219.033269 361.344328 
L 219.33516 359.723577 
L 218.959732 358.116718 
L 217.972782 356.796964 
L 216.536867 355.981957 
L 214.895821 355.810621 
" style="fill:none;stroke:#999999;"/>
    <path clip-path="url(#pb407462ed5)" d="M 215.518954 363.766193 
L 215.077729 363.831023 
L 213.618592 363.465197 
L 212.391678 362.58536 
L 211.578895 361.316544 
L 211.288616 359.834714 
L 211.551803 358.3853 
L 212.31814 357.125745 
L 213.483128 356.232016 
L 214.895821 355.810621 
" style="fill:none;stroke:#999999;"/>
    <path clip-path="url(#pb407462ed5)" d="M 214.895821 355.810621 
L 213.483128 356.232016 
L 212.31814 357.125745 
L 211.551803 358.3853 
L 211.288616 359.834714 
L 211.578895 361.316544 
L 212.391678 362.58536 
L 213.618592 363.465197 
L 215.077729 363.831023 
L 215.518954 363.766193 
" style="fill:none;stroke:#999999;"/>
    <path clip-path="url(#pb407462ed5)" d="M 214.895821 355.810621 
L 216.536867 355.981957 
L 217.972782 356.796964 
L 218.959732 358.116718 
L 219.33516 359.723577 
L 219.033269 361.344328 
L 218.108246 362.71039 
L 216.711035 363.590226 
L 215.518954 363.766193 
" style="fill:none;stroke:#999999;"/>
    <path clip-path="url(#pb407462ed5)" d="M 214.895821 355.810621 
L 214.857117 355.09286 
L 214.88421 333.578546 
L 214.857117 318.287917 
L 215.170619 316.912594 
L 215.886641 315.106615 
" style="fill:none;stroke:#999999;"/>
    <path clip-path="url(#pb407462ed5)" d="M 216.76135 307.878065 
L 217.918597 308.595826 
L 219.145511 310.003564 
" style="fill:none;stroke:#999999;"/>
    <path clip-path="url(#pb407462ed5)" d="M 216.76135 307.878065 
L 216.393662 308.42912 
L 215.008062 309.276541 
L 213.390239 309.447878 
" style="fill:none;stroke:#999999;"/>
    <path clip-path="url(#pb407462ed5)" d="M 216.76135 307.878065 
L 217.291593 307.076951 
L 217.527687 305.470092 
L 217.202574 304.395765 
" style="fill:none;stroke:#999999;"/>
    <path clip-path="url(#pb407462ed5)" d="M 219.145511 310.003564 
L 217.918597 308.595826 
L 216.76135 307.878065 
" style="fill:none;stroke:#999999;"/>
    <path clip-path="url(#pb407462ed5)" d="M 219.145511 310.003564 
L 219.671884 308.734747 
L 220.062794 306.479588 
L 219.904108 303.932693 
L 219.815089 303.603912 
" style="fill:none;stroke:#999999;"/>
    <path clip-path="url(#pb407462ed5)" d="M 219.145511 310.003564 
L 218.712027 311.045475 
L 217.504465 312.166109 
" style="fill:none;stroke:#999999;"/>
    <path clip-path="url(#pb407462ed5)" d="M 250.356348 30.632381 
L 323.773804 30.3036 
" style="fill:none;stroke:#999999;"/>
    <path clip-path="url(#pb407462ed5)" d="M 250.356348 30.632381 
L 250.356348 11.822407 
L 323.947971 11.928913 
" style="fill:none;stroke:#999999;"/>
    <path clip-path="url(#pb407462ed5)" d="M 250.356348 30.632381 
L 231.755246 30.632381 
L 213.150274 30.632381 
" style="fill:none;stroke:#999999;"/>
    <path clip-path="url(#pb407462ed5)" d="M 401.173893 346.887228 
L 381.907084 346.887228 
" style="fill:none;stroke:#999999;"/>
    <path clip-path="url(#pb407462ed5)" d="M 401.173893 346.887228 
L 401.173893 326.95199 
L 399.180641 307.683575 
L 399.180641 284.428112 
L 432.404082 284.761523 
" style="fill:none;stroke:#999999;"/>
    <path clip-path="url(#pb407462ed5)" d="M 401.173893 346.887228 
L 433.398772 346.220405 
L 439.711381 345.224801 
L 446.352973 342.233357 
" style="fill:none;stroke:#999999;"/>
    <path clip-path="url(#pb407462ed5)" d="M 219.815089 303.603912 
L 217.202574 304.395765 
" style="fill:none;stroke:#999999;"/>
    <path clip-path="url(#pb407462ed5)" d="M 219.815089 303.603912 
L 217.388353 294.796288 
L 216.478811 288.646695 
L 216.478811 279.121309 
L 218.193394 274.21738 
L 219.505457 272.115034 
" style="fill:none;stroke:#999999;"/>
    <path clip-path="url(#pb407462ed5)" d="M 219.815089 303.603912 
L 219.904108 303.932693 
L 220.062794 306.479588 
L 219.671884 308.734747 
L 219.145511 310.003564 
" style="fill:none;stroke:#999999;"/>
    <path clip-path="url(#pb407462ed5)" d="M 217.202574 304.395765 
L 219.815089 303.603912 
" style="fill:none;stroke:#999999;"/>
    <path clip-path="url(#pb407462ed5)" d="M 217.202574 304.395765 
L 217.527687 305.470092 
L 217.291593 307.076951 
L 216.76135 307.878065 
" style="fill:none;stroke:#999999;"/>
    <path clip-path="url(#pb407462ed5)" d="M 217.202574 304.395765 
L 217.055499 303.914171 
L 215.967919 302.710184 
L 214.470078 302.080406 
L 212.848384 302.154498 
L 211.714359 302.673138 
L 210.816428 303.539082 
L 210.255222 304.655085 
L 210.096535 305.891487 
L 210.375204 307.174196 
L 211.087356 308.276306 
L 212.132361 309.068159 
L 213.390239 309.447878 
" style="fill:none;stroke:#999999;"/>
    <path clip-path="url(#pb407462ed5)" d="M 213.390239 309.447878 
L 212.132361 309.068159 
L 211.087356 308.276306 
L 210.375204 307.174196 
L 210.096535 305.891487 
L 210.255222 304.655085 
L 210.816428 303.539082 
L 211.714359 302.673138 
L 212.848384 302.154498 
L 214.470078 302.080406 
L 215.967919 302.710184 
L 217.055499 303.914171 
L 217.202574 304.395765 
" style="fill:none;stroke:#999999;"/>
    <path clip-path="url(#pb407462ed5)" d="M 213.390239 309.447878 
L 213.59924 310.147116 
L 213.951445 311.990142 
L 215.019673 312.712534 
" style="fill:none;stroke:#999999;"/>
    <path clip-path="url(#pb407462ed5)" d="M 213.390239 309.447878 
L 215.008062 309.276541 
L 216.393662 308.42912 
L 216.76135 307.878065 
" style="fill:none;stroke:#999999;"/>
    <path clip-path="url(#pb407462ed5)" d="M 215.886641 315.106615 
L 215.170619 316.912594 
L 214.857117 318.287917 
L 214.88421 333.578546 
L 214.857117 355.09286 
L 214.895821 355.810621 
" style="fill:none;stroke:#999999;"/>
    <path clip-path="url(#pb407462ed5)" d="M 215.886641 315.106615 
L 215.251897 314.671327 
L 214.876469 314.004504 
" style="fill:none;stroke:#999999;"/>
    <path clip-path="url(#pb407462ed5)" d="M 215.886641 315.106615 
L 216.645238 315.213121 
L 217.372871 314.976954 
L 217.922467 314.444422 
L 218.181783 313.72203 
" style="fill:none;stroke:#999999;"/>
    <path clip-path="url(#pb407462ed5)" d="M 214.876469 314.004504 
L 213.274127 315.060307 
L 211.71823 315.481703 
L 208.618046 315.467811 
L 202.42542 315.296474 
L 201.272043 314.842664 
L 195.133602 315.949405 
L 191.797325 315.750284 
L 188.333324 315.101984 
L 184.5326 313.092252 
L 181.080211 311.420563 
L 177.991638 310.989907 
" style="fill:none;stroke:#999999;"/>
    <path clip-path="url(#pb407462ed5)" d="M 214.876469 314.004504 
L 214.833895 313.240435 
L 215.019673 312.712534 
" style="fill:none;stroke:#999999;"/>
    <path clip-path="url(#pb407462ed5)" d="M 214.876469 314.004504 
L 215.251897 314.671327 
L 215.886641 315.106615 
" style="fill:none;stroke:#999999;"/>
    <path clip-path="url(#pb407462ed5)" d="M 215.019673 312.712534 
L 213.951445 311.990142 
L 213.59924 310.147116 
L 213.390239 309.447878 
" style="fill:none;stroke:#999999;"/>
    <path clip-path="url(#pb407462ed5)" d="M 215.019673 312.712534 
L 215.368009 312.272615 
L 215.840196 311.971619 
L 216.389792 311.841959 
L 216.974221 311.906789 
L 217.504465 312.166109 
" style="fill:none;stroke:#999999;"/>
    <path clip-path="url(#pb407462ed5)" d="M 215.019673 312.712534 
L 214.833895 313.240435 
L 214.876469 314.004504 
" style="fill:none;stroke:#999999;"/>
    <path clip-path="url(#pb407462ed5)" d="M 217.504465 312.166109 
L 217.910856 312.592135 
L 218.143079 313.133929 
L 218.181783 313.72203 
" style="fill:none;stroke:#999999;"/>
    <path clip-path="url(#pb407462ed5)" d="M 217.504465 312.166109 
L 216.974221 311.906789 
L 216.389792 311.841959 
L 215.840196 311.971619 
L 215.368009 312.272615 
L 215.019673 312.712534 
" style="fill:none;stroke:#999999;"/>
    <path clip-path="url(#pb407462ed5)" d="M 217.504465 312.166109 
L 218.712027 311.045475 
L 219.145511 310.003564 
" style="fill:none;stroke:#999999;"/>
    <path clip-path="url(#pb407462ed5)" d="M 218.181783 313.72203 
L 218.402396 313.694246 
L 228.403487 314.935278 
" style="fill:none;stroke:#999999;"/>
    <path clip-path="url(#pb407462ed5)" d="M 218.181783 313.72203 
L 217.922467 314.444422 
L 217.372871 314.976954 
L 216.645238 315.213121 
L 215.886641 315.106615 
" style="fill:none;stroke:#999999;"/>
    <path clip-path="url(#pb407462ed5)" d="M 218.181783 313.72203 
L 218.143079 313.133929 
L 217.910856 312.592135 
L 217.504465 312.166109 
" style="fill:none;stroke:#999999;"/>
    <path clip-path="url(#pb407462ed5)" d="M 168.547883 414.310474 
L 168.497568 422.812471 
L 171.024933 422.821733 
L 199.944499 422.900455 
L 199.967721 414.393827 
L 171.08686 414.315105 
L 168.547883 414.310474 
" style="fill:none;stroke:#999999;"/>
    <path clip-path="url(#pb407462ed5)" d="M 168.547883 414.310474 
L 171.08686 414.315105 
L 199.967721 414.393827 
L 199.944499 422.900455 
L 171.024933 422.821733 
L 168.497568 422.812471 
L 168.547883 414.310474 
" style="fill:none;stroke:#999999;"/>
    <path clip-path="url(#pb407462ed5)" d="M 168.547883 414.310474 
L 168.969756 344.229197 
L 168.400808 310.938969 
" style="fill:none;stroke:#999999;"/>
    <path clip-path="url(#pb407462ed5)" d="M 205.904902 268.114094 
L 209.097974 268.100202 
L 209.759811 268.100202 
" style="fill:none;stroke:#999999;"/>
    <path clip-path="url(#pb407462ed5)" d="M 205.904902 268.114094 
L 204.294819 267.803836 
L 202.738921 267.752898 
L 201.128838 268.141878 
L 199.441348 268.762394 
L 197.88545 269.595924 
L 195.988959 270.322946 
L 193.655112 271.230567 
L 190.462039 272.425292 
L 186.336202 273.800615 
L 182.934128 275.069432 
L 178.471567 277.005071 
" style="fill:none;stroke:#999999;"/>
    <path clip-path="url(#pb407462ed5)" d="M 205.904902 268.114094 
L 206.241626 269.230097 
L 206.528035 270.684142 
L 207.902024 271.642701 
L 208.838658 272.161341 
L 210.057832 272.369723 
L 211.509228 272.138187 
L 212.782587 271.411165 
L 213.89726 270.295162 
L 215.093211 268.609581 
" style="fill:none;stroke:#999999;"/>
    <path clip-path="url(#pb407462ed5)" d="M 446.352973 342.233357 
L 439.711381 345.224801 
L 433.398772 346.220405 
L 401.173893 346.887228 
" style="fill:none;stroke:#999999;"/>
    <path clip-path="url(#pb407462ed5)" d="M 215.093211 268.609581 
L 213.328312 268.285431 
L 211.017689 268.100202 
L 209.759811 268.100202 
" style="fill:none;stroke:#999999;"/>
    <path clip-path="url(#pb407462ed5)" d="M 215.093211 268.609581 
L 214.69069 267.581562 
L 214.663597 262.811923 
" style="fill:none;stroke:#999999;"/>
    <path clip-path="url(#pb407462ed5)" d="M 215.093211 268.609581 
L 213.89726 270.295162 
L 212.782587 271.411165 
L 211.509228 272.138187 
L 210.057832 272.369723 
L 208.838658 272.161341 
L 207.902024 271.642701 
L 206.528035 270.684142 
L 206.241626 269.230097 
L 205.904902 268.114094 
" style="fill:none;stroke:#999999;"/>
    <path clip-path="url(#pb407462ed5)" d="M 215.093211 268.609581 
L 217.140648 268.063156 
L 219.14164 268.683672 
L 220.12472 269.503309 
L 220.844613 270.573005 
" style="fill:none;stroke:#999999;"/>
    <path clip-path="url(#pb407462ed5)" d="M 219.505457 272.115034 
L 219.776385 271.360227 
L 220.236961 270.869371 
L 220.844613 270.573005 
" style="fill:none;stroke:#999999;"/>
    <path clip-path="url(#pb407462ed5)" d="M 219.505457 272.115034 
L 218.193394 274.21738 
L 216.478811 279.121309 
L 216.478811 288.646695 
L 217.388353 294.796288 
L 219.815089 303.603912 
" style="fill:none;stroke:#999999;"/>
    <path clip-path="url(#pb407462ed5)" d="M 219.505457 272.115034 
L 219.578995 272.906887 
L 219.981515 273.596863 
L 220.639482 274.050674 
L 221.425171 274.180334 
L 222.195379 273.96269 
L 222.79916 273.439419 
L 223.124273 272.712396 
L 223.147496 272.119665 
L 222.981069 271.550086 
L 222.640474 271.063861 
" style="fill:none;stroke:#999999;"/>
    <path clip-path="url(#pb407462ed5)" d="M 220.844613 270.573005 
L 220.12472 269.503309 
L 219.14164 268.683672 
L 217.140648 268.063156 
L 215.093211 268.609581 
" style="fill:none;stroke:#999999;"/>
    <path clip-path="url(#pb407462ed5)" d="M 220.844613 270.573005 
L 221.518061 270.522067 
L 222.164416 270.711926 
L 222.640474 271.063861 
" style="fill:none;stroke:#999999;"/>
    <path clip-path="url(#pb407462ed5)" d="M 220.844613 270.573005 
L 220.236961 270.869371 
L 219.776385 271.360227 
L 219.505457 272.115034 
" style="fill:none;stroke:#999999;"/>
    <path clip-path="url(#pb407462ed5)" d="M 222.640474 271.063861 
L 225.330396 269.938597 
L 230.106459 268.405829 
L 232.026174 267.965911 
L 233.299532 268.016849 
L 234.569021 268.484551 
L 236.101696 269.57277 
L 239.395399 272.791119 
L 242.046617 274.560053 
" style="fill:none;stroke:#999999;"/>
    <path clip-path="url(#pb407462ed5)" d="M 222.640474 271.063861 
L 222.981069 271.550086 
L 223.147496 272.119665 
L 223.124273 272.712396 
L 222.79916 273.439419 
L 222.195379 273.96269 
L 221.425171 274.180334 
L 220.639482 274.050674 
L 219.981515 273.596863 
L 219.578995 272.906887 
L 219.505457 272.115034 
" style="fill:none;stroke:#999999;"/>
    <path clip-path="url(#pb407462ed5)" d="M 222.640474 271.063861 
L 222.164416 270.711926 
L 221.518061 270.522067 
L 220.844613 270.573005 
" style="fill:none;stroke:#999999;"/>
    <path clip-path="url(#pb407462ed5)" d="M 314.473253 312.337446 
L 348.687514 312.666226 
" style="fill:none;stroke:#999999;"/>
    <path clip-path="url(#pb407462ed5)" d="M 314.473253 312.337446 
L 314.473253 379.441172 
" style="fill:none;stroke:#999999;"/>
    <path clip-path="url(#pb407462ed5)" d="M 314.473253 312.337446 
L 315.467944 262.117315 
" style="fill:none;stroke:#999999;"/>
    <path clip-path="url(#pb407462ed5)" d="M 107.178955 354.856693 
L 107.178955 343.228962 
L 110.832605 312.004034 
L 112.825857 296.389255 
L 112.593633 262.86286 
" style="fill:none;stroke:#999999;"/>
    <path clip-path="url(#pb407462ed5)" d="M 210.924799 190.155966 
L 210.495186 262.835076 
" style="fill:none;stroke:#999999;"/>
    <path clip-path="url(#pb407462ed5)" d="M 210.924799 190.155966 
L 211.157023 151.216263 
" style="fill:none;stroke:#999999;"/>
    <path clip-path="url(#pb407462ed5)" d="M 210.924799 190.155966 
L 229.467845 190.058721 
L 241.77956 189.966107 
L 248.212151 188.752859 
" style="fill:none;stroke:#999999;"/>
    <path clip-path="url(#pb407462ed5)" d="M 362.973129 114.675272 
L 370.280428 112.021871 
" style="fill:none;stroke:#999999;"/>
    <path clip-path="url(#pb407462ed5)" d="M 248.212151 188.752859 
L 241.77956 189.966107 
L 229.467845 190.058721 
L 210.924799 190.155966 
" style="fill:none;stroke:#999999;"/>
    <path clip-path="url(#pb407462ed5)" d="M 248.212151 188.752859 
L 249.953827 188.424078 
L 261.785614 184.770442 
L 285.348557 183.325658 
L 304.019326 186.303209 
" style="fill:none;stroke:#999999;"/>
    <path clip-path="url(#pb407462ed5)" d="M 248.212151 188.752859 
L 250.963999 182.922785 
L 251.440057 177.958656 
L 250.174439 173.517798 
" style="fill:none;stroke:#999999;"/>
    <path clip-path="url(#pb407462ed5)" d="M 248.212151 188.752859 
L 243.552199 193.735511 
L 241.102242 197.750343 
L 241.237705 211.554511 
" style="fill:none;stroke:#999999;"/>
    <path clip-path="url(#pb407462ed5)" d="M 304.019326 186.303209 
L 303.098173 189.039963 
L 297.520938 195.703565 
L 294.459459 200.399113 
L 291.057385 202.57555 
L 288.54163 204.478775 
" style="fill:none;stroke:#999999;"/>
    <path clip-path="url(#pb407462ed5)" d="M 304.019326 186.303209 
L 285.348557 183.325658 
L 261.785614 184.770442 
L 249.953827 188.424078 
L 248.212151 188.752859 
" style="fill:none;stroke:#999999;"/>
    <path clip-path="url(#pb407462ed5)" d="M 304.019326 186.303209 
L 305.261721 186.50233 
L 314.879644 190.637561 
L 324.671735 198.310659 
" style="fill:none;stroke:#999999;"/>
    <path clip-path="url(#pb407462ed5)" d="M 304.019326 186.303209 
L 322.995855 170.165159 
L 323.812508 168.734267 
L 324.288566 166.55783 
L 325.647073 163.97389 
L 333.875526 159.621015 
L 339.011535 156.972245 
" style="fill:none;stroke:#999999;"/>
    <path clip-path="url(#pb407462ed5)" d="M 250.174439 173.517798 
L 245.181634 155.990533 
" style="fill:none;stroke:#999999;"/>
    <path clip-path="url(#pb407462ed5)" d="M 250.174439 173.517798 
L 244.094054 175.647928 
L 242.530416 175.782219 
L 241.5783 175.444177 
L 240.49072 173.740073 
L 236.271993 158.778225 
L 236.748051 156.944461 
L 238.311689 155.921072 
L 245.181634 155.990533 
" style="fill:none;stroke:#999999;"/>
    <path clip-path="url(#pb407462ed5)" d="M 250.174439 173.517798 
L 251.440057 177.958656 
L 250.963999 182.922785 
L 248.212151 188.752859 
" style="fill:none;stroke:#999999;"/>
    <path clip-path="url(#pb407462ed5)" d="M 339.011535 156.972245 
L 339.112165 139.352365 
" style="fill:none;stroke:#999999;"/>
    <path clip-path="url(#pb407462ed5)" d="M 339.011535 156.972245 
L 344.828734 153.976171 
L 346.798763 152.54991 
L 347.886343 151.049557 
L 348.296604 141.121299 
L 347.95601 139.89879 
L 347.274821 139.352365 
L 339.112165 139.352365 
" style="fill:none;stroke:#999999;"/>
    <path clip-path="url(#pb407462ed5)" d="M 339.011535 156.972245 
L 333.875526 159.621015 
L 325.647073 163.97389 
L 324.288566 166.55783 
L 323.812508 168.734267 
L 322.995855 170.165159 
L 304.019326 186.303209 
" style="fill:none;stroke:#999999;"/>
    <path clip-path="url(#pb407462ed5)" d="M 51.627226 262.886014 
L 54.700317 262.830445 
L 67.414553 262.529449 
" style="fill:none;stroke:#999999;"/>
    <path clip-path="url(#pb407462ed5)" d="M 239.863716 423.692308 
L 239.859846 420.654557 
L 239.825012 399.154136 
" style="fill:none;stroke:#999999;"/>
    <path clip-path="url(#pb407462ed5)" d="M 245.181634 155.990533 
L 250.174439 173.517798 
" style="fill:none;stroke:#999999;"/>
    <path clip-path="url(#pb407462ed5)" d="M 245.181634 155.990533 
L 238.311689 155.921072 
L 236.748051 156.944461 
L 236.271993 158.778225 
L 240.49072 173.740073 
L 241.5783 175.444177 
L 242.530416 175.782219 
L 244.094054 175.647928 
L 250.174439 173.517798 
" style="fill:none;stroke:#999999;"/>
    <path clip-path="url(#pb407462ed5)" d="M 245.181634 155.990533 
L 256.200639 156.671248 
L 257.899741 156.124824 
L 259.811714 155.606183 
L 260.899294 154.110461 
L 261.781743 143.978452 
L 262.257802 142.686482 
L 264.02657 142.413269 
L 304.290253 142.552191 
L 306.945342 141.051838 
L 309.801691 139.421826 
L 339.112165 139.352365 
" style="fill:none;stroke:#999999;"/>
    <path clip-path="url(#pb407462ed5)" d="M 188.573288 8.349369 
L 213.223812 8.307692 
L 213.150274 30.632381 
" style="fill:none;stroke:#999999;"/>
    <path clip-path="url(#pb407462ed5)" d="M 87.854091 54.70285 
L 68.432466 54.95754 
" style="fill:none;stroke:#999999;"/>
    <path clip-path="url(#pb407462ed5)" d="M 87.854091 54.70285 
L 212.41877 53.054315 
" style="fill:none;stroke:#999999;"/>
    <path clip-path="url(#pb407462ed5)" d="M 87.854091 54.70285 
L 87.954721 42.676877 
L 60.513645 42.667616 
L 60.552349 54.985324 
" style="fill:none;stroke:#999999;"/>
    <path clip-path="url(#pb407462ed5)" d="M 60.552349 54.985324 
L 68.432466 54.95754 
" style="fill:none;stroke:#999999;"/>
    <path clip-path="url(#pb407462ed5)" d="M 60.552349 54.985324 
L 55.756934 54.980693 
L 52.819307 55.02237 
L 50.67511 55.031631 
" style="fill:none;stroke:#999999;"/>
    <path clip-path="url(#pb407462ed5)" d="M 60.552349 54.985324 
L 60.513645 42.667616 
L 87.954721 42.676877 
L 87.854091 54.70285 
" style="fill:none;stroke:#999999;"/>
    <path clip-path="url(#pb407462ed5)" d="M 241.949857 304.455964 
L 239.472807 304.789376 
" style="fill:none;stroke:#999999;"/>
    <path clip-path="url(#pb407462ed5)" d="M 241.949857 304.455964 
L 242.940678 308.271676 
" style="fill:none;stroke:#999999;"/>
    <path clip-path="url(#pb407462ed5)" d="M 241.949857 304.455964 
L 241.833746 304.020677 
L 240.931944 299.422375 
L 240.258496 293.504318 
L 240.722943 285.331101 
L 241.729245 277.148624 
L 242.046617 274.560053 
" style="fill:none;stroke:#999999;"/>
    <path clip-path="url(#pb407462ed5)" d="M 242.940678 308.271676 
L 240.746166 309.383048 
" style="fill:none;stroke:#999999;"/>
    <path clip-path="url(#pb407462ed5)" d="M 242.940678 308.271676 
L 241.949857 304.455964 
" style="fill:none;stroke:#999999;"/>
    <path clip-path="url(#pb407462ed5)" d="M 242.940678 308.271676 
L 243.215475 309.336741 
L 245.6306 310.374021 
L 248.277948 310.480528 
L 249.938345 309.128358 
L 250.286681 308.188323 
" style="fill:none;stroke:#999999;"/>
    <path clip-path="url(#pb407462ed5)" d="M 250.286681 308.188323 
L 256.452214 308.415228 
L 281.42011 308.62361 
" style="fill:none;stroke:#999999;"/>
    <path clip-path="url(#pb407462ed5)" d="M 250.286681 308.188323 
L 250.847887 306.68797 
L 251.029796 276.166912 
L 250.406663 274.532268 
" style="fill:none;stroke:#999999;"/>
    <path clip-path="url(#pb407462ed5)" d="M 250.286681 308.188323 
L 249.938345 309.128358 
L 248.277948 310.480528 
L 245.6306 310.374021 
L 243.215475 309.336741 
L 242.940678 308.271676 
" style="fill:none;stroke:#999999;"/>
    <path clip-path="url(#pb407462ed5)" d="M 281.42011 308.62361 
L 256.452214 308.415228 
L 250.286681 308.188323 
" style="fill:none;stroke:#999999;"/>
    <path clip-path="url(#pb407462ed5)" d="M 242.046617 274.560053 
L 250.406663 274.532268 
" style="fill:none;stroke:#999999;"/>
    <path clip-path="url(#pb407462ed5)" d="M 242.046617 274.560053 
L 239.395399 272.791119 
L 236.101696 269.57277 
L 234.569021 268.484551 
L 233.299532 268.016849 
L 232.026174 267.965911 
L 230.106459 268.405829 
L 225.330396 269.938597 
L 222.640474 271.063861 
" style="fill:none;stroke:#999999;"/>
    <path clip-path="url(#pb407462ed5)" d="M 242.046617 274.560053 
L 241.729245 277.148624 
L 240.722943 285.331101 
L 240.258496 293.504318 
L 240.931944 299.422375 
L 241.833746 304.020677 
L 241.949857 304.455964 
" style="fill:none;stroke:#999999;"/>
    <path clip-path="url(#pb407462ed5)" d="M 250.406663 274.532268 
L 242.046617 274.560053 
" style="fill:none;stroke:#999999;"/>
    <path clip-path="url(#pb407462ed5)" d="M 250.406663 274.532268 
L 250.611794 262.617432 
" style="fill:none;stroke:#999999;"/>
    <path clip-path="url(#pb407462ed5)" d="M 250.406663 274.532268 
L 251.029796 276.166912 
L 250.847887 306.68797 
L 250.286681 308.188323 
" style="fill:none;stroke:#999999;"/>
    <path clip-path="url(#pb407462ed5)" d="M 250.611794 262.617432 
L 214.663597 262.811923 
" style="fill:none;stroke:#999999;"/>
    <path clip-path="url(#pb407462ed5)" d="M 250.611794 262.617432 
L 250.406663 274.532268 
" style="fill:none;stroke:#999999;"/>
    <path clip-path="url(#pb407462ed5)" d="M 250.611794 262.617432 
L 252.090283 262.608171 
L 305.501686 262.172884 
" style="fill:none;stroke:#999999;"/>
    <path clip-path="url(#pb407462ed5)" d="M 67.414553 262.529449 
L 68.432466 54.95754 
" style="fill:none;stroke:#999999;"/>
    <path clip-path="url(#pb407462ed5)" d="M 67.414553 262.529449 
L 112.593633 262.86286 
" style="fill:none;stroke:#999999;"/>
    <path clip-path="url(#pb407462ed5)" d="M 67.414553 262.529449 
L 54.700317 262.830445 
L 51.627226 262.886014 
" style="fill:none;stroke:#999999;"/>
    <path clip-path="url(#pb407462ed5)" d="M 112.593633 262.86286 
L 168.969756 262.848968 
" style="fill:none;stroke:#999999;"/>
    <path clip-path="url(#pb407462ed5)" d="M 112.593633 262.86286 
L 67.414553 262.529449 
" style="fill:none;stroke:#999999;"/>
    <path clip-path="url(#pb407462ed5)" d="M 112.593633 262.86286 
L 112.825857 296.389255 
L 110.832605 312.004034 
L 107.178955 343.228962 
L 107.178955 354.856693 
" style="fill:none;stroke:#999999;"/>
    <path clip-path="url(#pb407462ed5)" d="M 210.495186 262.835076 
L 214.663597 262.811923 
" style="fill:none;stroke:#999999;"/>
    <path clip-path="url(#pb407462ed5)" d="M 210.495186 262.835076 
L 210.924799 190.155966 
" style="fill:none;stroke:#999999;"/>
    <path clip-path="url(#pb407462ed5)" d="M 210.495186 262.835076 
L 209.810127 262.835076 
" style="fill:none;stroke:#999999;"/>
    <path clip-path="url(#pb407462ed5)" d="M 305.501686 262.172884 
L 315.467944 262.117315 
" style="fill:none;stroke:#999999;"/>
    <path clip-path="url(#pb407462ed5)" d="M 305.501686 262.172884 
L 252.090283 262.608171 
L 250.611794 262.617432 
" style="fill:none;stroke:#999999;"/>
    <path clip-path="url(#pb407462ed5)" d="M 305.501686 262.172884 
L 305.168832 246.224693 
L 306.167393 232.939164 
L 310.815733 217.657797 
L 319.787301 203.043253 
L 324.671735 198.310659 
" style="fill:none;stroke:#999999;"/>
    <path clip-path="url(#pb407462ed5)" d="M 241.237705 211.554511 
L 241.102242 197.750343 
L 243.552199 193.735511 
L 248.212151 188.752859 
" style="fill:none;stroke:#999999;"/>
    <path clip-path="url(#pb407462ed5)" d="M 241.237705 211.554511 
L 242.189822 212.374148 
L 242.600083 213.323445 
L 242.120155 225.974565 
L 240.421053 226.859032 
L 234.708355 226.113487 
L 234.16263 223.321164 
L 234.913486 212.64273 
L 235.25408 211.623972 
L 241.237705 211.554511 
" style="fill:none;stroke:#999999;"/>
    <path clip-path="url(#pb407462ed5)" d="M 241.237705 211.554511 
L 235.25408 211.623972 
L 234.913486 212.64273 
L 234.16263 223.321164 
L 234.708355 226.113487 
L 240.421053 226.859032 
L 242.120155 225.974565 
L 242.600083 213.323445 
L 242.189822 212.374148 
L 241.237705 211.554511 
" style="fill:none;stroke:#999999;"/>
    <path clip-path="url(#pb407462ed5)" d="M 448.679078 261.50606 
L 465.526892 261.418077 
" style="fill:none;stroke:#999999;"/>
    <path clip-path="url(#pb407462ed5)" d="M 448.679078 261.50606 
L 366.959632 261.839472 
" style="fill:none;stroke:#999999;"/>
    <path clip-path="url(#pb407462ed5)" d="M 448.679078 261.50606 
L 448.346224 231.94356 
" style="fill:none;stroke:#999999;"/>
    <path clip-path="url(#pb407462ed5)" d="M 448.679078 261.50606 
L 448.679078 284.761523 
L 432.404082 284.761523 
" style="fill:none;stroke:#999999;"/>
    <path clip-path="url(#pb407462ed5)" d="M 288.54163 204.478775 
L 281.605889 201.417871 
L 280.584105 201.825374 
L 276.77564 211.41559 
L 276.570509 212.573269 
L 283.986179 215.634173 
L 288.270703 206.451461 
L 288.54163 204.478775 
" style="fill:none;stroke:#999999;"/>
    <path clip-path="url(#pb407462ed5)" d="M 288.54163 204.478775 
L 288.270703 206.451461 
L 283.986179 215.634173 
L 276.570509 212.573269 
L 276.77564 211.41559 
L 280.584105 201.825374 
L 281.605889 201.417871 
L 288.54163 204.478775 
" style="fill:none;stroke:#999999;"/>
    <path clip-path="url(#pb407462ed5)" d="M 288.54163 204.478775 
L 291.057385 202.57555 
L 294.459459 200.399113 
L 297.520938 195.703565 
L 303.098173 189.039963 
L 304.019326 186.303209 
" style="fill:none;stroke:#999999;"/>
    <path clip-path="url(#pb407462ed5)" d="M 465.526892 261.418077 
L 448.679078 261.50606 
" style="fill:none;stroke:#999999;"/>
    <path clip-path="url(#pb407462ed5)" d="M 324.671735 198.310659 
L 330.415396 192.744537 
L 352.596609 176.652794 
L 364.300673 168.160058 
L 371.940826 165.168615 
" style="fill:none;stroke:#999999;"/>
    <path clip-path="url(#pb407462ed5)" d="M 324.671735 198.310659 
L 319.787301 203.043253 
L 310.815733 217.657797 
L 306.167393 232.939164 
L 305.168832 246.224693 
L 305.501686 262.172884 
" style="fill:none;stroke:#999999;"/>
    <path clip-path="url(#pb407462ed5)" d="M 324.671735 198.310659 
L 314.879644 190.637561 
L 305.261721 186.50233 
L 304.019326 186.303209 
" style="fill:none;stroke:#999999;"/>
    <path clip-path="url(#pb407462ed5)" d="M 249.315212 88.372797 
L 249.218453 86.26119 
L 249.315212 81.94073 
L 248.932044 79.157669 
L 248.258596 76.948817 
L 246.242122 74.934455 
L 243.45931 73.109952 
L 242.213044 71.285449 
L 242.116284 69.460947 
L 242.019524 65.529468 
L 242.499453 53.179344 
" style="fill:none;stroke:#999999;"/>
    <path clip-path="url(#pb407462ed5)" d="M 212.41877 53.054315 
L 211.82273 89.099819 
" style="fill:none;stroke:#999999;"/>
    <path clip-path="url(#pb407462ed5)" d="M 212.41877 53.054315 
L 87.854091 54.70285 
" style="fill:none;stroke:#999999;"/>
    <path clip-path="url(#pb407462ed5)" d="M 212.41877 53.054315 
L 213.150274 30.632381 
" style="fill:none;stroke:#999999;"/>
    <path clip-path="url(#pb407462ed5)" d="M 212.41877 53.054315 
L 221.765766 52.952439 
L 236.163622 53.239544 
L 242.499453 53.179344 
" style="fill:none;stroke:#999999;"/>
    <path clip-path="url(#pb407462ed5)" d="M 213.150274 30.632381 
L 212.41877 53.054315 
" style="fill:none;stroke:#999999;"/>
    <path clip-path="url(#pb407462ed5)" d="M 213.150274 30.632381 
L 231.755246 30.632381 
L 250.356348 30.632381 
" style="fill:none;stroke:#999999;"/>
    <path clip-path="url(#pb407462ed5)" d="M 213.150274 30.632381 
L 213.223812 8.307692 
L 188.573288 8.349369 
" style="fill:none;stroke:#999999;"/>
    <path clip-path="url(#pb407462ed5)" d="M 323.773804 30.3036 
L 323.947971 11.928913 
" style="fill:none;stroke:#999999;"/>
    <path clip-path="url(#pb407462ed5)" d="M 323.773804 30.3036 
L 397.520243 30.3036 
L 397.698281 11.614025 
L 323.947971 11.928913 
" style="fill:none;stroke:#999999;"/>
    <path clip-path="url(#pb407462ed5)" d="M 323.773804 30.3036 
L 250.356348 30.632381 
" style="fill:none;stroke:#999999;"/>
    <path clip-path="url(#pb407462ed5)" d="M 323.773804 30.3036 
L 323.390635 46.964921 
L 322.724928 49.349741 
" style="fill:none;stroke:#999999;"/>
    <path clip-path="url(#pb407462ed5)" d="M 242.499453 53.179344 
L 242.019524 65.529468 
L 242.116284 69.460947 
L 242.213044 71.285449 
L 243.45931 73.109952 
L 246.242122 74.934455 
L 248.258596 76.948817 
L 248.932044 79.157669 
L 249.315212 81.94073 
L 249.218453 86.26119 
L 249.315212 88.372797 
" style="fill:none;stroke:#999999;"/>
    <path clip-path="url(#pb407462ed5)" d="M 242.499453 53.179344 
L 255.554283 53.049684 
L 285.793652 52.855194 
L 304.700515 52.56809 
L 314.972534 52.76258 
L 318.622313 52.76258 
L 322.171462 51.322427 
L 322.724928 49.349741 
" style="fill:none;stroke:#999999;"/>
    <path clip-path="url(#pb407462ed5)" d="M 242.499453 53.179344 
L 236.163622 53.239544 
L 221.765766 52.952439 
L 212.41877 53.054315 
" style="fill:none;stroke:#999999;"/>
    <path clip-path="url(#pb407462ed5)" d="M 322.724928 49.349741 
L 323.390635 46.964921 
L 323.773804 30.3036 
" style="fill:none;stroke:#999999;"/>
    <path clip-path="url(#pb407462ed5)" d="M 322.724928 49.349741 
L 322.171462 51.322427 
L 318.622313 52.76258 
L 314.972534 52.76258 
L 304.700515 52.56809 
L 285.793652 52.855194 
L 255.554283 53.049684 
L 242.499453 53.179344 
" style="fill:none;stroke:#999999;"/>
    <path clip-path="url(#pb407462ed5)" d="M 322.724928 49.349741 
L 338.821886 49.229342 
L 374.340469 49.516447 
L 398.336896 48.942238 
L 433.661959 48.844993 
" style="fill:none;stroke:#999999;"/>
    <path clip-path="url(#pb407462ed5)" d="M 50.67511 55.031631 
L 52.819307 55.02237 
L 55.756934 54.980693 
L 60.552349 54.985324 
" style="fill:none;stroke:#999999;"/>
    <path clip-path="url(#pb407462ed5)" d="M 339.112165 139.352365 
L 339.011535 156.972245 
" style="fill:none;stroke:#999999;"/>
    <path clip-path="url(#pb407462ed5)" d="M 339.112165 139.352365 
L 347.274821 139.352365 
L 347.95601 139.89879 
L 348.296604 141.121299 
L 347.886343 151.049557 
L 346.798763 152.54991 
L 344.828734 153.976171 
L 339.011535 156.972245 
" style="fill:none;stroke:#999999;"/>
    <path clip-path="url(#pb407462ed5)" d="M 339.112165 139.352365 
L 309.801691 139.421826 
L 306.945342 141.051838 
L 304.290253 142.552191 
L 264.02657 142.413269 
L 262.257802 142.686482 
L 261.781743 143.978452 
L 260.899294 154.110461 
L 259.811714 155.606183 
L 257.899741 156.124824 
L 256.200639 156.671248 
L 245.181634 155.990533 
" style="fill:none;stroke:#999999;"/>
    <path clip-path="url(#pb407462ed5)" d="M 211.342802 133.814027 
L 211.157023 151.216263 
" style="fill:none;stroke:#999999;"/>
    <path clip-path="url(#pb407462ed5)" d="M 211.342802 133.814027 
L 211.82273 89.099819 
" style="fill:none;stroke:#999999;"/>
    <path clip-path="url(#pb407462ed5)" d="M 211.342802 133.814027 
L 233.4737 133.531553 
" style="fill:none;stroke:#999999;"/>
    <path clip-path="url(#pb407462ed5)" d="M 233.4737 133.531553 
L 211.342802 133.814027 
" style="fill:none;stroke:#999999;"/>
    <path clip-path="url(#pb407462ed5)" d="M 233.4737 133.531553 
L 234.433557 133.522292 
L 312.344538 132.92956 
" style="fill:none;stroke:#999999;"/>
    <path clip-path="url(#pb407462ed5)" d="M 233.4737 133.531553 
L 233.663349 119.190221 
L 235.010245 116.305284 
L 238.087207 114.573396 
L 306.283505 113.994556 
L 309.553986 114.476151 
L 310.513843 115.536585 
L 311.67109 117.361088 
L 312.344538 132.92956 
" style="fill:none;stroke:#999999;"/>
    <path clip-path="url(#pb407462ed5)" d="M 312.344538 132.92956 
L 336.101001 132.753593 
" style="fill:none;stroke:#999999;"/>
    <path clip-path="url(#pb407462ed5)" d="M 312.344538 132.92956 
L 234.433557 133.522292 
L 233.4737 133.531553 
" style="fill:none;stroke:#999999;"/>
    <path clip-path="url(#pb407462ed5)" d="M 312.344538 132.92956 
L 311.67109 117.361088 
L 310.513843 115.536585 
L 309.553986 114.476151 
L 306.283505 113.994556 
L 238.087207 114.573396 
L 235.010245 116.305284 
L 233.663349 119.190221 
L 233.4737 133.531553 
" style="fill:none;stroke:#999999;"/>
    <path clip-path="url(#pb407462ed5)" d="M 336.101001 132.753593 
L 312.344538 132.92956 
" style="fill:none;stroke:#999999;"/>
    <path clip-path="url(#pb407462ed5)" d="M 381.907084 346.887228 
L 381.907084 379.441172 
" style="fill:none;stroke:#999999;"/>
    <path clip-path="url(#pb407462ed5)" d="M 381.907084 346.887228 
L 361.645585 346.553817 
" style="fill:none;stroke:#999999;"/>
    <path clip-path="url(#pb407462ed5)" d="M 381.907084 346.887228 
L 401.173893 346.887228 
" style="fill:none;stroke:#999999;"/>
    <path clip-path="url(#pb407462ed5)" d="M 433.661959 48.844993 
L 398.336896 48.942238 
L 374.340469 49.516447 
L 338.821886 49.229342 
L 322.724928 49.349741 
" style="fill:none;stroke:#999999;"/>
    <path clip-path="url(#pb407462ed5)" d="M 323.947971 11.928913 
L 323.773804 30.3036 
" style="fill:none;stroke:#999999;"/>
    <path clip-path="url(#pb407462ed5)" d="M 323.947971 11.928913 
L 397.698281 11.614025 
L 397.520243 30.3036 
L 323.773804 30.3036 
" style="fill:none;stroke:#999999;"/>
    <path clip-path="url(#pb407462ed5)" d="M 323.947971 11.928913 
L 250.356348 11.822407 
L 250.356348 30.632381 
" style="fill:none;stroke:#999999;"/>
    <path clip-path="url(#pb407462ed5)" d="M 366.959632 261.839472 
L 366.626778 232.272341 
" style="fill:none;stroke:#999999;"/>
    <path clip-path="url(#pb407462ed5)" d="M 366.959632 261.839472 
L 448.679078 261.50606 
" style="fill:none;stroke:#999999;"/>
    <path clip-path="url(#pb407462ed5)" d="M 366.959632 261.839472 
L 315.467944 262.117315 
" style="fill:none;stroke:#999999;"/>
    <path clip-path="url(#pb407462ed5)" d="M 371.940826 165.168615 
L 370.613282 157.527931 
L 370.280428 112.021871 
" style="fill:none;stroke:#999999;"/>
    <path clip-path="url(#pb407462ed5)" d="M 371.940826 165.168615 
L 364.300673 168.160058 
L 352.596609 176.652794 
L 330.415396 192.744537 
L 324.671735 198.310659 
" style="fill:none;stroke:#999999;"/>
    <path clip-path="url(#pb407462ed5)" d="M 371.940826 165.168615 
L 377.920581 164.17301 
L 410.14546 164.506422 
" style="fill:none;stroke:#999999;"/>
    <path clip-path="url(#pb407462ed5)" d="M 370.280428 112.021871 
L 362.973129 114.675272 
" style="fill:none;stroke:#999999;"/>
    <path clip-path="url(#pb407462ed5)" d="M 370.280428 112.021871 
L 370.613282 157.527931 
L 371.940826 165.168615 
" style="fill:none;stroke:#999999;"/>
    <path clip-path="url(#pb407462ed5)" d="M 370.280428 112.021871 
L 449.344785 112.021871 
L 449.654417 164.81668 
" style="fill:none;stroke:#999999;"/>
    <path clip-path="url(#pb407462ed5)" d="M 211.157023 151.216263 
L 167.309358 151.549675 
" style="fill:none;stroke:#999999;"/>
    <path clip-path="url(#pb407462ed5)" d="M 211.157023 151.216263 
L 210.924799 190.155966 
" style="fill:none;stroke:#999999;"/>
    <path clip-path="url(#pb407462ed5)" d="M 211.157023 151.216263 
L 211.342802 133.814027 
" style="fill:none;stroke:#999999;"/>
    <path clip-path="url(#pb407462ed5)" d="M 167.309358 151.549675 
L 211.157023 151.216263 
" style="fill:none;stroke:#999999;"/>
    <path clip-path="url(#pb407462ed5)" d="M 315.467944 262.117315 
L 366.959632 261.839472 
" style="fill:none;stroke:#999999;"/>
    <path clip-path="url(#pb407462ed5)" d="M 315.467944 262.117315 
L 305.501686 262.172884 
" style="fill:none;stroke:#999999;"/>
    <path clip-path="url(#pb407462ed5)" d="M 315.467944 262.117315 
L 314.473253 312.337446 
" style="fill:none;stroke:#999999;"/>
    <path clip-path="url(#pb407462ed5)" d="M 331.74681 276.458647 
L 339.054109 279.778871 
L 348.687514 280.112283 
L 348.687514 312.666226 
" style="fill:none;stroke:#999999;"/>
    <path clip-path="url(#pb407462ed5)" d="M 361.645585 346.553817 
L 381.907084 346.887228 
" style="fill:none;stroke:#999999;"/>
    <path clip-path="url(#pb407462ed5)" d="M 361.645585 346.553817 
L 361.974568 313.33305 
L 348.687514 312.666226 
" style="fill:none;stroke:#999999;"/>
    <path clip-path="url(#pb407462ed5)" d="M 361.645585 346.553817 
L 337.060858 345.886993 
L 337.060858 379.10776 
" style="fill:none;stroke:#999999;"/>
    <path clip-path="url(#pb407462ed5)" d="M 68.432466 54.95754 
L 67.414553 262.529449 
" style="fill:none;stroke:#999999;"/>
    <path clip-path="url(#pb407462ed5)" d="M 68.432466 54.95754 
L 60.552349 54.985324 
" style="fill:none;stroke:#999999;"/>
    <path clip-path="url(#pb407462ed5)" d="M 68.432466 54.95754 
L 87.854091 54.70285 
" style="fill:none;stroke:#999999;"/>
    <path clip-path="url(#pb407462ed5)" d="M 211.82273 89.099819 
L 211.342802 133.814027 
" style="fill:none;stroke:#999999;"/>
    <path clip-path="url(#pb407462ed5)" d="M 211.82273 89.099819 
L 212.41877 53.054315 
" style="fill:none;stroke:#999999;"/>
    <path clip-path="url(#pb407462ed5)" d="M 211.82273 89.099819 
L 176.277055 89.433231 
L 167.309358 94.415883 
" style="fill:none;stroke:#999999;"/>
    <path clip-path="url(#pb407462ed5)" d="M 167.309358 94.415883 
L 176.277055 89.433231 
L 211.82273 89.099819 
" style="fill:none;stroke:#999999;"/>
    <path clip-path="url(#pb407462ed5)" d="M 432.404082 284.761523 
L 432.733065 300.042891 
L 436.057731 307.683575 
" style="fill:none;stroke:#999999;"/>
    <path clip-path="url(#pb407462ed5)" d="M 432.404082 284.761523 
L 399.180641 284.428112 
L 399.180641 307.683575 
L 401.173893 326.95199 
L 401.173893 346.887228 
" style="fill:none;stroke:#999999;"/>
    <path clip-path="url(#pb407462ed5)" d="M 432.404082 284.761523 
L 448.679078 284.761523 
L 448.679078 261.50606 
" style="fill:none;stroke:#999999;"/>
    <path clip-path="url(#pb407462ed5)" d="M 209.810127 262.835076 
L 209.759811 268.100202 
" style="fill:none;stroke:#999999;"/>
    <path clip-path="url(#pb407462ed5)" d="M 209.810127 262.835076 
L 210.495186 262.835076 
" style="fill:none;stroke:#999999;"/>
    <path clip-path="url(#pb407462ed5)" d="M 209.810127 262.835076 
L 192.594625 262.839707 
L 168.969756 262.848968 
" style="fill:none;stroke:#999999;"/>
    <path clip-path="url(#pb407462ed5)" d="M 436.057731 307.683575 
L 432.733065 300.042891 
L 432.404082 284.761523 
" style="fill:none;stroke:#999999;"/>
    <path clip-path="url(#pb407462ed5)" d="M 209.759811 268.100202 
L 209.810127 262.835076 
" style="fill:none;stroke:#999999;"/>
    <path clip-path="url(#pb407462ed5)" d="M 209.759811 268.100202 
L 209.097974 268.100202 
L 205.904902 268.114094 
" style="fill:none;stroke:#999999;"/>
    <path clip-path="url(#pb407462ed5)" d="M 209.759811 268.100202 
L 211.017689 268.100202 
L 213.328312 268.285431 
L 215.093211 268.609581 
" style="fill:none;stroke:#999999;"/>
    <path clip-path="url(#pb407462ed5)" d="M 214.663597 262.811923 
L 250.611794 262.617432 
" style="fill:none;stroke:#999999;"/>
    <path clip-path="url(#pb407462ed5)" d="M 214.663597 262.811923 
L 210.495186 262.835076 
" style="fill:none;stroke:#999999;"/>
    <path clip-path="url(#pb407462ed5)" d="M 214.663597 262.811923 
L 214.69069 267.581562 
L 215.093211 268.609581 
" style="fill:none;stroke:#999999;"/>
    <path clip-path="url(#pb407462ed5)" d="M 178.471567 277.005071 
L 179.601721 287.90578 
L 179.806852 297.560826 
L 178.301269 309.549754 
L 177.991638 310.989907 
" style="fill:none;stroke:#999999;"/>
    <path clip-path="url(#pb407462ed5)" d="M 178.471567 277.005071 
L 178.250954 275.652902 
L 172.836277 274.587837 
L 168.787847 274.435023 
" style="fill:none;stroke:#999999;"/>
    <path clip-path="url(#pb407462ed5)" d="M 178.471567 277.005071 
L 182.934128 275.069432 
L 186.336202 273.800615 
L 190.462039 272.425292 
L 193.655112 271.230567 
L 195.988959 270.322946 
L 197.88545 269.595924 
L 199.441348 268.762394 
L 201.128838 268.141878 
L 202.738921 267.752898 
L 204.294819 267.803836 
L 205.904902 268.114094 
" style="fill:none;stroke:#999999;"/>
    <path clip-path="url(#pb407462ed5)" d="M 168.400808 310.938969 
L 168.969756 344.229197 
L 168.547883 414.310474 
" style="fill:none;stroke:#999999;"/>
    <path clip-path="url(#pb407462ed5)" d="M 168.400808 310.938969 
L 168.304048 305.358954 
L 168.787847 274.435023 
" style="fill:none;stroke:#999999;"/>
    <path clip-path="url(#pb407462ed5)" d="M 168.400808 310.938969 
L 172.936907 310.8834 
L 177.991638 310.989907 
" style="fill:none;stroke:#999999;"/>
    <path clip-path="url(#pb407462ed5)" d="M 177.991638 310.989907 
L 172.936907 310.8834 
L 168.400808 310.938969 
" style="fill:none;stroke:#999999;"/>
    <path clip-path="url(#pb407462ed5)" d="M 177.991638 310.989907 
L 178.301269 309.549754 
L 179.806852 297.560826 
L 179.601721 287.90578 
L 178.471567 277.005071 
" style="fill:none;stroke:#999999;"/>
    <path clip-path="url(#pb407462ed5)" d="M 177.991638 310.989907 
L 181.080211 311.420563 
L 184.5326 313.092252 
L 188.333324 315.101984 
L 191.797325 315.750284 
L 195.133602 315.949405 
L 201.272043 314.842664 
L 202.42542 315.296474 
L 208.618046 315.467811 
L 211.71823 315.481703 
L 213.274127 315.060307 
L 214.876469 314.004504 
" style="fill:none;stroke:#999999;"/>
    <path clip-path="url(#pb407462ed5)" d="M 168.787847 274.435023 
L 168.969756 262.848968 
" style="fill:none;stroke:#999999;"/>
    <path clip-path="url(#pb407462ed5)" d="M 168.787847 274.435023 
L 168.304048 305.358954 
L 168.400808 310.938969 
" style="fill:none;stroke:#999999;"/>
    <path clip-path="url(#pb407462ed5)" d="M 168.787847 274.435023 
L 172.836277 274.587837 
L 178.250954 275.652902 
L 178.471567 277.005071 
" style="fill:none;stroke:#999999;"/>
    <path clip-path="url(#pb407462ed5)" d="M 410.14546 164.506422 
L 449.654417 164.81668 
" style="fill:none;stroke:#999999;"/>
    <path clip-path="url(#pb407462ed5)" d="M 410.14546 164.506422 
L 409.812607 149.225055 
" style="fill:none;stroke:#999999;"/>
    <path clip-path="url(#pb407462ed5)" d="M 410.14546 164.506422 
L 377.920581 164.17301 
L 371.940826 165.168615 
" style="fill:none;stroke:#999999;"/>
    <path clip-path="url(#pb407462ed5)" d="M 348.687514 312.666226 
L 314.473253 312.337446 
" style="fill:none;stroke:#999999;"/>
    <path clip-path="url(#pb407462ed5)" d="M 348.687514 312.666226 
L 348.687514 280.112283 
L 339.054109 279.778871 
L 331.74681 276.458647 
" style="fill:none;stroke:#999999;"/>
    <path clip-path="url(#pb407462ed5)" d="M 348.687514 312.666226 
L 361.974568 313.33305 
L 361.645585 346.553817 
" style="fill:none;stroke:#999999;"/>
    <path clip-path="url(#pb407462ed5)" d="M 448.346224 231.94356 
L 366.626778 232.272341 
" style="fill:none;stroke:#999999;"/>
    <path clip-path="url(#pb407462ed5)" d="M 448.346224 231.94356 
L 448.679078 261.50606 
" style="fill:none;stroke:#999999;"/>
    <path clip-path="url(#pb407462ed5)" d="M 448.346224 231.94356 
L 448.679078 197.727189 
" style="fill:none;stroke:#999999;"/>
    <path clip-path="url(#pb407462ed5)" d="M 366.626778 232.272341 
L 448.346224 231.94356 
" style="fill:none;stroke:#999999;"/>
    <path clip-path="url(#pb407462ed5)" d="M 366.626778 232.272341 
L 366.959632 261.839472 
" style="fill:none;stroke:#999999;"/>
    <path clip-path="url(#pb407462ed5)" d="M 366.626778 232.272341 
L 341.047361 231.94356 
L 341.713068 225.298481 
L 343.040613 218.986813 
L 345.699572 213.008557 
L 350.347912 207.359081 
L 355.994813 202.709841 
L 363.967819 199.384986 
L 370.613282 198.05597 
L 448.679078 197.727189 
" style="fill:none;stroke:#999999;"/>
    <path clip-path="url(#pb407462ed5)" d="M 409.812607 149.225055 
L 410.14546 164.506422 
" style="fill:none;stroke:#999999;"/>
    <path clip-path="url(#pb407462ed5)" d="M 459.311043 373.129504 
L 446.685826 378.112156 
L 436.719568 379.774584 
L 381.907084 379.441172 
" style="fill:none;stroke:#999999;"/>
    <path clip-path="url(#pb407462ed5)" d="M 449.654417 164.81668 
L 448.679078 197.727189 
" style="fill:none;stroke:#999999;"/>
    <path clip-path="url(#pb407462ed5)" d="M 449.654417 164.81668 
L 410.14546 164.506422 
" style="fill:none;stroke:#999999;"/>
    <path clip-path="url(#pb407462ed5)" d="M 449.654417 164.81668 
L 449.344785 112.021871 
L 370.280428 112.021871 
" style="fill:none;stroke:#999999;"/>
    <path clip-path="url(#pb407462ed5)" d="M 448.679078 197.727189 
L 448.346224 231.94356 
" style="fill:none;stroke:#999999;"/>
    <path clip-path="url(#pb407462ed5)" d="M 448.679078 197.727189 
L 449.654417 164.81668 
" style="fill:none;stroke:#999999;"/>
    <path clip-path="url(#pb407462ed5)" d="M 448.679078 197.727189 
L 370.613282 198.05597 
L 363.967819 199.384986 
L 355.994813 202.709841 
L 350.347912 207.359081 
L 345.699572 213.008557 
L 343.040613 218.986813 
L 341.713068 225.298481 
L 341.047361 231.94356 
L 366.626778 232.272341 
" style="fill:none;stroke:#999999;"/>
   </g>
  </g>
 </g>
 <defs>
  <clipPath id="pb407462ed5">
   <rect height="432" width="431.445853" x="42.378075" y="0"/>
  </clipPath>
 </defs>
</svg>
